<?xml version="1.0" standalone="no"?><!-- Generator: Gravit.io --><svg xmlns="http://www.w3.org/2000/svg" xmlns:xlink="http://www.w3.org/1999/xlink" style="isolation:isolate" viewBox="0 0 800 800" width="800" height="800"><defs><clipPath id="_clipPath_NaDvjRZNEaKz8FrLPdRzGU9qLy7dy9wO"><rect width="800" height="800"/></clipPath></defs><g clip-path="url(#_clipPath_NaDvjRZNEaKz8FrLPdRzGU9qLy7dy9wO)"><rect width="800" height="800" style="fill:rgb(0,0,0)" fill-opacity="0"/><defs><filter id="gd2ChV0omtB0CHcE89kjQIhZ7p8ceeqk" x="-200%" y="-200%" width="400%" height="400%" filterUnits="objectBoundingBox" color-interpolation-filters="sRGB"><feGaussianBlur xmlns="http://www.w3.org/2000/svg" stdDeviation="0"/></filter></defs><g filter="url(#gd2ChV0omtB0CHcE89kjQIhZ7p8ceeqk)"><linearGradient id="_lgradient_1" x1="0" y1="0.5" x2="1.1013154975081862" y2="0.5529637331201174" gradientTransform="matrix(867.401,0,0,750.029,-33.7,13.539)" gradientUnits="userSpaceOnUse"><stop offset="0%" stop-opacity="1" style="stop-color:rgb(255,255,255)"/><stop offset="30.25291668501146%" stop-opacity="1" style="stop-color:rgb(181,170,195)"/><stop offset="64.6343348007149%" stop-opacity="1" style="stop-color:rgb(199,181,180)"/><stop offset="100%" stop-opacity="1" style="stop-color:rgb(153,173,179)"/></linearGradient><path d=" M 505.685 402.338 L 384.573 407.427 C 203.536 415.035 182.087 497.914 336.704 592.39 L 336.704 592.39 C 491.321 686.865 537.917 639.429 440.693 486.525 L 376.109 384.955 C 278.885 232.051 196.188 254.807 191.551 435.74 L 191.551 435.74 C 186.914 616.673 251.365 633.231 335.386 472.693 L 391.159 366.129 C 475.18 205.591 414.11 145.442 254.867 231.893 L 254.827 231.914 C 95.585 318.366 113.278 382.377 294.315 374.769 L 415.427 369.679 C 596.464 362.072 617.913 279.193 463.296 184.717 L 463.296 184.717 C 308.679 90.241 262.083 137.677 359.307 290.581 L 423.891 392.152 C 521.115 545.055 603.812 522.299 608.449 341.366 L 608.449 341.366 C 613.086 160.433 548.635 143.875 464.614 304.413 L 408.841 410.977 C 324.82 571.516 385.89 631.665 545.133 545.213 L 545.173 545.192 C 704.415 458.741 686.722 394.73 505.685 402.338 Z " fill="url(#_lgradient_1)" vector-effect="non-scaling-stroke" stroke-width="6" stroke="rgb(0,0,0)" stroke-opacity="0.7" stroke-linejoin="miter" stroke-linecap="square" stroke-miterlimit="5"/></g></g></svg>